<?xml version="1.0" encoding="utf-8"?>
<!-- Generator: Adobe Illustrator 25.4.1, SVG Export Plug-In . SVG Version: 6.00 Build 0)  -->
<svg version="1.1" id="Layer_1" xmlns="http://www.w3.org/2000/svg" xmlns:xlink="http://www.w3.org/1999/xlink" x="0px" y="0px"
	 viewBox="0 0 2000 2000" style="enable-background:new 0 0 2000 2000;" xml:space="preserve">
<style type="text/css">
	.st0{display:none;fill:#0B3B7B;}
	.st1{fill:#0B3B7B;}
	.st2{fill:#254FF3;}
	.st3{fill:#FFFFFF;}
	.st4{fill:#0040FF;}
	.st5{fill:#015EFF;}
	.st6{fill:#1679FE;}
	.st7{fill:#2B92FD;}
	.st8{fill:#40ACFD;}
	.st9{fill:#5FD2FB;}
	.st10{fill:#73EBFA;}
	.st11{fill:#B3B3B3;}
</style>
<rect class="st1" width="2000" height="2000"/>
<g>
	<g>
		<path class="st3" d="M1155.45,673.79H996.12l68.97,63.44h70.48c12.44,0,23.34,9.36,24.16,21.77c0.47,7.11-2.21,13.58-6.79,18.15
			c-4.23,4.23-10.06,6.84-16.54,6.84h-71.32l-51.23,47.1l-2.82,2.62l-14.93,13.72l5.5-13.72l6.64-16.54v-0.03l13.32-33.14h-83.21
			c-2.71,0-7.15,0.13-9.86,0.29l-0.76,0.04c-0.97,0.03-1.91,0.1-2.89,0.2c-0.84,0.03-1.64,0.1-2.48,0.2
			c-1.31,0.1-2.62,0.23-3.92,0.4c-1.54,0.17-3.09,0.37-4.63,0.6c-0.64,0.07-1.31,0.17-1.95,0.3c-1.61,0.23-3.25,0.5-4.86,0.81
			c-0.07,0-0.17,0.03-0.23,0.03c-0.1,0.03-0.2,0.03-0.3,0.07c-1.68,0.3-3.35,0.64-5,1.01c-1.81,0.37-3.59,0.81-5.37,1.24
			c-0.07,0-0.1,0.03-0.17,0.03c-1.64,0.44-3.29,0.84-4.9,1.31c-1.71,0.5-3.42,1.01-5.1,1.54c-1.68,0.54-3.39,1.11-5.03,1.68
			c-1.81,0.64-3.59,1.31-5.33,1.98c-1.48,0.57-2.95,1.17-4.39,1.78c-1.78,0.77-3.52,1.51-5.23,2.31c-0.84,0.37-1.64,0.74-2.45,1.17
			c-0.2,0.07-0.4,0.17-0.6,0.27c-0.13,0.07-0.27,0.13-0.4,0.2c-0.54,0.27-1.07,0.54-1.61,0.81c-1.38,0.67-2.72,1.38-4.09,2.11
			c-4.73,2.55-9.36,5.3-13.82,8.25c-1.34,0.87-2.65,1.78-3.96,2.72c-1.14,0.81-2.25,1.58-3.35,2.42c-0.1,0.07-0.24,0.17-0.34,0.23
			c-1.58,1.17-3.12,2.35-4.63,3.56l-0.03,0.03c-1.21,0.97-2.42,1.95-3.59,2.95c-0.24,0.17-0.47,0.37-0.67,0.57
			c-0.2,0.17-0.4,0.34-0.64,0.54c-0.44,0.37-0.87,0.74-1.31,1.14c-0.6,0.5-1.21,1.04-1.81,1.61c-0.74,0.64-1.44,1.27-2.15,1.91
			c-0.03,0.07-0.1,0.1-0.13,0.13l-0.1,0.1c-1.38,1.24-2.68,2.55-3.99,3.86c-1.31,1.24-2.55,2.55-3.79,3.86
			c-0.07,0.1-0.17,0.17-0.24,0.27c-0.57,0.6-1.14,1.24-1.74,1.88c-0.07,0.07-0.17,0.17-0.24,0.27c-1.88,2.05-3.69,4.13-5.43,6.27
			c-0.17,0.17-0.3,0.34-0.44,0.5c-0.1,0.1-0.17,0.23-0.27,0.34c-0.74,0.87-1.44,1.78-2.15,2.68c-0.81,1.01-1.61,2.05-2.42,3.12
			c-0.03,0.07-0.07,0.1-0.13,0.17c-0.44,0.6-0.91,1.24-1.34,1.88c-0.13,0.17-0.23,0.34-0.37,0.5c-0.91,1.21-1.78,2.45-2.62,3.72
			c-0.7,1.04-1.41,2.08-2.08,3.15c-0.1,0.17-0.2,0.34-0.3,0.5c-0.13,0.17-0.24,0.34-0.34,0.5c-0.1,0.13-0.2,0.27-0.27,0.4
			c-0.4,0.57-0.77,1.17-1.14,1.78c-0.03,0.07-0.07,0.1-0.1,0.17c-0.91,1.44-1.78,2.89-2.62,4.36c-0.17,0.23-0.3,0.5-0.47,0.81
			c-0.94,1.64-1.85,3.29-2.72,4.96c-0.13,0.23-0.27,0.47-0.37,0.7c-0.86,2-1.97,3.88-2.92,5.83c-0.07,0.15-0.14,0.3-0.2,0.45
			c-0.87,1.85-1.71,3.69-2.52,5.57c0,0,0,0.03,0,0.07c-0.74,1.71-1.44,3.46-2.15,5.17c-0.27,0.67-0.5,1.38-0.77,2.05
			c-0.67,1.78-1.31,3.56-1.91,5.37c0.97-19.05,5-37.3,11.61-54.25c0.87-2.25,1.81-4.5,2.78-6.68
			c22.91-52.1,70.75-90.78,128.45-100.91c9.8-1.74,19.89-2.65,30.19-2.65h74.31l-25.46-63.44h-48.84
			C851.6,673.79,774,751.35,774,847.06v103.7h9.35c4.85-14.22,11.52-27.6,19.7-39.86c0.19-0.28,0.37-0.56,0.56-0.84
			c26.73-39.55,71.94-62.6,119.68-62.6h7.44v288.6h0c76.51,0,138.53-62.02,138.53-138.53V847.46h86.18
			c15.67,0,30.12-5.1,41.83-13.75c4.46-3.29,8.52-7.08,12.08-11.31c7.21-8.52,12.45-18.79,14.93-30.06
			c1.14-4.97,1.71-10.13,1.71-15.43v-32.57C1226,705.39,1194.43,673.79,1155.45,673.79z"/>
	</g>
	<g>
		<path class="st3" d="M503.25,1323.36v-99.75h-36.38v-24.98h98.41v24.98h-36.21v99.75H503.25z"/>
		<path class="st3" d="M637.37,1225.12v25.31c-3.18-0.5-6.37-0.84-9.22-0.84c-15.93,0-23.97,9.55-23.97,24.14v49.62H579.2v-97.9
			h20.95l2.01,12.57c7.38-8.21,17.27-13.41,29.17-13.41C633.35,1224.62,635.36,1224.79,637.37,1225.12z"/>
		<path class="st3" d="M724.38,1225.46h21.29v97.9h-21.29l-1.84-11.57c-7.38,7.71-17.94,13.24-30.51,13.24
			c-26.66,0-48.45-22.13-48.45-50.63c0-28.67,21.79-50.63,48.45-50.63c12.57,0,23.13,5.53,30.51,13.24L724.38,1225.46z
			 M720.86,1274.41c0-15.09-11.23-26.15-25.99-26.15c-14.75,0-25.98,11.07-25.98,26.15c0,15.09,11.23,26.15,25.98,26.15
			C709.63,1300.56,720.86,1289.33,720.86,1274.41z"/>
		<path class="st3" d="M833.36,1225.46h28.33l-53.31,100.75l-53.31-100.75h28.33l24.98,51.97L833.36,1225.46z"/>
		<path class="st3" d="M958.93,1282.46h-72.59c3.19,12.57,13.92,20.62,28.84,20.62c9.72,0,17.94-3.02,24.14-8.89l14.75,16.26
			c-11.4,10.22-22.97,14.58-39.06,14.58c-31.52,0-53.48-20.45-53.48-49.96c0-29.34,21.96-51.3,51.13-51.3
			c27.33,0,46.94,19.61,46.94,47.11C959.59,1277.09,959.43,1280.45,958.93,1282.46z M935.62,1263.51
			c-0.5-10.56-9.89-17.77-23.14-17.77c-13.07,0-22.13,6.71-25.65,17.77H935.62z"/>
		<path class="st3" d="M978.54,1292.35V1186.9h25.14l-0.17,104.44c0,7.71,2.18,11.4,8.22,11.4c3.18,0,5.53-1.01,8.72-3.02
			l8.88,19.28c-5.7,4.36-13.75,6.03-21.96,6.03C988.6,1325.04,978.54,1313.47,978.54,1292.35z"/>
		<path class="st3" d="M1067.73,1323.36v-99.75h-36.38v-24.98h98.41v24.98h-36.21v99.75H1067.73z"/>
		<path class="st3" d="M1201.85,1225.12v25.31c-3.18-0.5-6.37-0.84-9.22-0.84c-15.93,0-23.97,9.55-23.97,24.14v49.62h-24.98v-97.9
			h20.95l2.01,12.57c7.38-8.21,17.27-13.41,29.17-13.41C1197.83,1224.62,1199.84,1224.79,1201.85,1225.12z"/>
		<path class="st3" d="M1288.86,1225.46h21.29v97.9h-21.29l-1.84-11.57c-7.38,7.71-17.94,13.24-30.51,13.24
			c-26.66,0-48.45-22.13-48.45-50.63c0-28.67,21.79-50.63,48.45-50.63c12.57,0,23.13,5.53,30.51,13.24L1288.86,1225.46z
			 M1285.34,1274.41c0-15.09-11.23-26.15-25.99-26.15c-14.75,0-25.98,11.07-25.98,26.15c0,15.09,11.23,26.15,25.98,26.15
			C1274.11,1300.56,1285.34,1289.33,1285.34,1274.41z"/>
		<path class="st3" d="M1328.93,1274.41c0-28.67,22.63-50.63,52.14-50.63c14.42,0,27.5,5.53,37.05,15.42l-17.77,17.6
			c-5.2-5.36-11.73-8.55-19.28-8.55c-15.25,0-26.82,11.07-26.82,26.15c0,15.09,11.57,26.15,26.82,26.15
			c7.38,0,14.08-3.02,19.45-8.55l17.77,17.6c-9.39,9.72-22.63,15.42-37.22,15.42C1351.56,1325.04,1328.93,1303.08,1328.93,1274.41z"
			/>
		<path class="st3" d="M1435.55,1323.36V1186.9h24.98v75.1l36.88-36.55h32.19l-37.38,36.55l40.91,61.36h-29.67l-29-43.59
			l-13.91,13.41v30.18H1435.55z"/>
	</g>
</g>
</svg>
